<svg width="40" height="40" viewBox="0 0 40 40" fill="none" xmlns="http://www.w3.org/2000/svg">
<path fill-rule="evenodd" clip-rule="evenodd" d="M40 0H0V40H40V0ZM8.78475 11.9313C8 13.4714 8 15.4876 8 19.52V20.48C8 24.5124 8 26.5286 8.78475 28.0687C9.47504 29.4235 10.5765 30.525 11.9313 31.2152C13.4714 32 15.4876 32 19.52 32H20.48C24.5124 32 26.5286 32 28.0687 31.2152C29.4235 30.525 30.525 29.4235 31.2152 28.0687C32 26.5286 32 24.5124 32 20.48V19.52C32 15.4876 32 13.4714 31.2152 11.9313C30.525 10.5765 29.4235 9.47504 28.0687 8.78475C26.5286 8 24.5124 8 20.48 8H19.52C15.4876 8 13.4714 8 11.9313 8.78475C10.5765 9.47504 9.47504 10.5765 8.78475 11.9313ZM20.48 10.4H19.52C17.4642 10.4 16.0667 10.4019 14.9865 10.4901C13.9343 10.5761 13.3962 10.7319 13.0208 10.9232C12.1177 11.3834 11.3834 12.1177 10.9232 13.0208C10.7319 13.3962 10.5761 13.9343 10.4901 14.9865C10.4019 16.0667 10.4 17.4642 10.4 19.52V20.48C10.4 22.5358 10.4019 23.9333 10.4901 25.0135C10.5761 26.0657 10.7319 26.6038 10.9232 26.9792C11.3834 27.8823 12.1177 28.6166 13.0208 29.0768C13.3962 29.2681 13.9343 29.4239 14.9865 29.5099C16.0667 29.5981 17.4642 29.6 19.52 29.6H20.48C22.5358 29.6 23.9333 29.5981 25.0135 29.5099C26.0657 29.4239 26.6038 29.2681 26.9792 29.0768C27.8823 28.6166 28.6166 27.8823 29.0768 26.9792C29.2681 26.6038 29.4239 26.0657 29.5099 25.0135C29.5981 23.9333 29.6 22.5358 29.6 20.48V19.52C29.6 17.4642 29.5981 16.0667 29.5099 14.9865C29.4239 13.9343 29.2681 13.3962 29.0768 13.0208C28.6166 12.1177 27.8823 11.3834 26.9792 10.9232C26.6038 10.7319 26.0657 10.5761 25.0135 10.4901C23.9333 10.4019 22.5358 10.4 20.48 10.4ZM28.4 13.4C28.4 14.3941 27.5941 15.2 26.6 15.2C25.6059 15.2 24.8 14.3941 24.8 13.4C24.8 12.4059 25.6059 11.6 26.6 11.6C27.5941 11.6 28.4 12.4059 28.4 13.4ZM20 26C23.3137 26 26 23.3137 26 20C26 16.6863 23.3137 14 20 14C16.6863 14 14 16.6863 14 20C14 23.3137 16.6863 26 20 26ZM20 23.6C21.9882 23.6 23.6 21.9882 23.6 20C23.6 18.0118 21.9882 16.4 20 16.4C18.0118 16.4 16.4 18.0118 16.4 20C16.4 21.9882 18.0118 23.6 20 23.6Z" fill="#181818"/>
</svg>
