<svg width="40" height="40" viewBox="0 0 40 40" fill="none" xmlns="http://www.w3.org/2000/svg">
<path fill-rule="evenodd" clip-rule="evenodd" d="M40 0H0V40H40V0ZM8 27.5162C10.1756 28.9078 12.7604 29.7143 15.5332 29.7143C23.6656 29.7143 29.7262 22.804 29.5466 14.8826C30.512 14.2135 31.6884 13.0182 32 12.2993C31.3698 12.7269 29.7746 13.0335 29.1851 13.1226C29.8562 12.727 30.9658 11.6595 31.3222 10.3799C30.6151 10.8358 29.1688 11.3629 28.2077 11.5881C27.2981 10.6109 26.0022 10 24.564 10C21.8115 10 19.5801 12.2379 19.5801 14.9986C19.5801 15.3832 19.6234 15.7577 19.7055 16.1175C15.3553 16.0159 11.839 14.1903 9.49273 10.9397C8.91459 11.6995 7.73839 15.2185 11.0078 17.5578C10.5692 17.5978 9.45285 17.4378 8.79498 16.978C8.67537 17.9177 9.21363 20.9968 12.7223 21.8766C12.0245 22.1565 10.7885 22.0365 10.5294 21.9365C10.7088 22.9362 12.0844 25.2756 15.1345 25.4155C13.1069 27.3495 9.84714 27.6358 8 27.5162Z" fill="#181818"/>
</svg>
