<svg width="40" height="40" viewBox="0 0 40 40" fill="none" xmlns="http://www.w3.org/2000/svg">
<path fill-rule="evenodd" clip-rule="evenodd" d="M40 0H0V40H40V0ZM17.9527 26.87C16.6927 26.87 15.6547 26.588 14.8387 26.024C14.0347 25.448 13.6327 24.644 13.6327 23.612C13.6327 23.504 13.6447 23.342 13.6687 23.126H16.2427C16.1947 23.63 16.3267 24.044 16.6387 24.368C16.9626 24.692 17.4307 24.854 18.0427 24.854C18.6547 24.854 19.1346 24.728 19.4827 24.476C19.8427 24.212 20.0226 23.84 20.0226 23.36C20.0226 22.916 19.8367 22.562 19.4647 22.298C19.1047 22.034 18.5347 21.74 17.7547 21.416C17.0347 21.116 16.4467 20.84 15.9907 20.588C15.5467 20.336 15.1627 19.988 14.8387 19.544C14.5267 19.088 14.3707 18.518 14.3707 17.834C14.3707 17.054 14.5687 16.376 14.9647 15.8C15.3727 15.224 15.9247 14.78 16.6207 14.468C17.3287 14.156 18.1327 14 19.0327 14C19.9207 14 20.6887 14.15 21.3367 14.45C21.9967 14.738 22.4886 15.152 22.8127 15.692C23.1487 16.232 23.2927 16.862 23.2447 17.582H20.5627L20.5807 17.384C20.5807 16.988 20.4307 16.664 20.1307 16.412C19.8427 16.16 19.4347 16.034 18.9067 16.034C18.3427 16.034 17.8867 16.166 17.5387 16.43C17.1907 16.694 17.0167 17.054 17.0167 17.51C17.0167 17.81 17.1127 18.074 17.3047 18.302C17.5087 18.518 17.7547 18.71 18.0427 18.878C18.3307 19.034 18.7447 19.238 19.2847 19.49C19.9927 19.802 20.5746 20.096 21.0306 20.372C21.4867 20.648 21.8766 21.014 22.2007 21.47C22.5247 21.926 22.6866 22.484 22.6866 23.144C22.6866 23.864 22.4886 24.506 22.0927 25.07C21.7087 25.634 21.1567 26.078 20.4366 26.402C19.7287 26.714 18.9007 26.87 17.9527 26.87ZM13.576 14.18L13.216 16.16H9.88599L8.01398 26.744H5.47601L7.34802 16.16H4L4.35999 14.18H13.576ZM26.095 17.132C25.375 18.104 24.907 19.208 24.691 20.444C24.619 20.876 24.583 21.302 24.583 21.722C24.583 22.73 24.805 23.624 25.249 24.404C25.693 25.184 26.317 25.79 27.121 26.222C27.937 26.642 28.873 26.852 29.929 26.852C31.333 26.852 32.623 26.498 33.799 25.79C34.987 25.07 35.905 24.068 36.553 22.784H33.655C33.259 23.36 32.773 23.798 32.197 24.098C31.621 24.398 30.991 24.548 30.307 24.548C29.347 24.548 28.585 24.266 28.021 23.702C27.469 23.138 27.193 22.37 27.193 21.398C27.193 21.146 27.223 20.828 27.283 20.444C27.427 19.628 27.709 18.908 28.129 18.284C28.561 17.66 29.089 17.18 29.713 16.844C30.349 16.508 31.033 16.34 31.765 16.34C32.449 16.34 33.025 16.49 33.493 16.79C33.961 17.078 34.291 17.51 34.483 18.086H37.381C37.189 16.814 36.625 15.818 35.689 15.098C34.753 14.378 33.583 14.018 32.179 14.018C30.979 14.018 29.845 14.294 28.777 14.846C27.721 15.386 26.827 16.148 26.095 17.132Z" fill="#181818"/>
</svg>
